<mxfile host="app.diagrams.net" modified="2023-08-08T09:29:41.894Z" agent="Mozilla/5.0 (Windows NT 10.0; Win64; x64) AppleWebKit/537.36 (KHTML, like Gecko) Chrome/115.0.0.0 Safari/537.36" etag="XvR4vpm2-ZwVcdUGVtNb" version="21.6.6" type="github">
  <diagram name="Page-1" id="hEoUdRKS2K95vNmGpTg2">
    <mxGraphModel dx="794" dy="442" grid="1" gridSize="10" guides="1" tooltips="1" connect="1" arrows="1" fold="1" page="1" pageScale="1" pageWidth="827" pageHeight="1169" background="#ffffff" math="0" shadow="0">
      <root>
        <mxCell id="0" />
        <mxCell id="1" parent="0" />
        <mxCell id="hT5-2lFfMJk-3gB8myd--1" value="client" style="shape=umlActor;verticalLabelPosition=bottom;verticalAlign=top;html=1;outlineConnect=0;fillStyle=hatch;strokeColor=#000000;" vertex="1" parent="1">
          <mxGeometry x="120" y="570" width="60" height="70" as="geometry" />
        </mxCell>
        <mxCell id="hT5-2lFfMJk-3gB8myd--2" value="consulter produit" style="ellipse;whiteSpace=wrap;html=1;fillStyle=solid;fillColor=#FCFFE0;" vertex="1" parent="1">
          <mxGeometry x="276" y="370" width="180" height="50" as="geometry" />
        </mxCell>
        <mxCell id="hT5-2lFfMJk-3gB8myd--8" value="rechercher produit" style="ellipse;whiteSpace=wrap;html=1;fillStyle=solid;fillColor=#FCFFE0;" vertex="1" parent="1">
          <mxGeometry x="276" y="430" width="180" height="50" as="geometry" />
        </mxCell>
        <mxCell id="hT5-2lFfMJk-3gB8myd--9" value="gÃ¨rer panier" style="ellipse;whiteSpace=wrap;html=1;fillStyle=solid;fillColor=#FCFFE0;" vertex="1" parent="1">
          <mxGeometry x="280" y="570" width="180" height="50" as="geometry" />
        </mxCell>
        <mxCell id="hT5-2lFfMJk-3gB8myd--10" value="passer commande" style="ellipse;whiteSpace=wrap;html=1;fillStyle=solid;fillColor=#FCFFE0;" vertex="1" parent="1">
          <mxGeometry x="280" y="630" width="180" height="50" as="geometry" />
        </mxCell>
        <mxCell id="hT5-2lFfMJk-3gB8myd--11" value="admin" style="shape=umlActor;verticalLabelPosition=bottom;verticalAlign=top;html=1;outlineConnect=0;fillStyle=hatch;strokeColor=#000000;" vertex="1" parent="1">
          <mxGeometry x="121" y="830" width="60" height="70" as="geometry" />
        </mxCell>
        <mxCell id="hT5-2lFfMJk-3gB8myd--12" value="visiteur" style="shape=umlActor;verticalLabelPosition=bottom;verticalAlign=top;html=1;outlineConnect=0;fillStyle=hatch;strokeColor=#000000;" vertex="1" parent="1">
          <mxGeometry x="120" y="370" width="60" height="70" as="geometry" />
        </mxCell>
        <mxCell id="hT5-2lFfMJk-3gB8myd--15" value="gerer produit" style="ellipse;whiteSpace=wrap;html=1;fillStyle=solid;fillColor=#FCFFE0;" vertex="1" parent="1">
          <mxGeometry x="280" y="780" width="180" height="50" as="geometry" />
        </mxCell>
        <mxCell id="hT5-2lFfMJk-3gB8myd--16" value="gerer commande" style="ellipse;whiteSpace=wrap;html=1;fillStyle=solid;fillColor=#FCFFE0;" vertex="1" parent="1">
          <mxGeometry x="279" y="850" width="180" height="50" as="geometry" />
        </mxCell>
        <mxCell id="hT5-2lFfMJk-3gB8myd--17" value="gerer commande" style="ellipse;whiteSpace=wrap;html=1;fillStyle=solid;fillColor=#FCFFE0;" vertex="1" parent="1">
          <mxGeometry x="280" y="920" width="180" height="50" as="geometry" />
        </mxCell>
        <mxCell id="hT5-2lFfMJk-3gB8myd--21" value="authentifier" style="ellipse;whiteSpace=wrap;html=1;fillStyle=solid;fillColor=#FCFFE0;" vertex="1" parent="1">
          <mxGeometry x="599" y="740" width="180" height="50" as="geometry" />
        </mxCell>
        <mxCell id="hT5-2lFfMJk-3gB8myd--22" value="" style="endArrow=classic;html=1;rounded=0;exitX=0.5;exitY=0;exitDx=0;exitDy=0;exitPerimeter=0;" edge="1" parent="1" source="hT5-2lFfMJk-3gB8myd--1">
          <mxGeometry width="50" height="50" relative="1" as="geometry">
            <mxPoint x="160" y="570" as="sourcePoint" />
            <mxPoint x="150" y="470" as="targetPoint" />
          </mxGeometry>
        </mxCell>
        <mxCell id="hT5-2lFfMJk-3gB8myd--23" value="" style="endArrow=none;html=1;rounded=0;entryX=0;entryY=0.5;entryDx=0;entryDy=0;" edge="1" parent="1" target="hT5-2lFfMJk-3gB8myd--2">
          <mxGeometry width="50" height="50" relative="1" as="geometry">
            <mxPoint x="190" y="420" as="sourcePoint" />
            <mxPoint x="240" y="380" as="targetPoint" />
          </mxGeometry>
        </mxCell>
        <mxCell id="hT5-2lFfMJk-3gB8myd--24" value="" style="endArrow=none;html=1;rounded=0;exitX=0;exitY=0.5;exitDx=0;exitDy=0;" edge="1" parent="1" source="hT5-2lFfMJk-3gB8myd--8">
          <mxGeometry width="50" height="50" relative="1" as="geometry">
            <mxPoint x="240" y="460" as="sourcePoint" />
            <mxPoint x="190" y="420" as="targetPoint" />
          </mxGeometry>
        </mxCell>
        <mxCell id="hT5-2lFfMJk-3gB8myd--25" value="" style="endArrow=none;html=1;rounded=0;entryX=0;entryY=0.5;entryDx=0;entryDy=0;" edge="1" parent="1" target="hT5-2lFfMJk-3gB8myd--9">
          <mxGeometry width="50" height="50" relative="1" as="geometry">
            <mxPoint x="190" y="610" as="sourcePoint" />
            <mxPoint x="240" y="560" as="targetPoint" />
          </mxGeometry>
        </mxCell>
        <mxCell id="hT5-2lFfMJk-3gB8myd--26" value="" style="endArrow=none;html=1;rounded=0;entryX=0;entryY=0.5;entryDx=0;entryDy=0;" edge="1" parent="1" target="hT5-2lFfMJk-3gB8myd--10">
          <mxGeometry width="50" height="50" relative="1" as="geometry">
            <mxPoint x="190" y="610" as="sourcePoint" />
            <mxPoint x="270" y="650" as="targetPoint" />
          </mxGeometry>
        </mxCell>
        <mxCell id="hT5-2lFfMJk-3gB8myd--27" value="" style="endArrow=none;dashed=1;html=1;rounded=0;exitX=1.028;exitY=0.597;exitDx=0;exitDy=0;exitPerimeter=0;entryX=0.343;entryY=-0.019;entryDx=0;entryDy=0;entryPerimeter=0;" edge="1" parent="1" source="hT5-2lFfMJk-3gB8myd--10" target="hT5-2lFfMJk-3gB8myd--21">
          <mxGeometry width="50" height="50" relative="1" as="geometry">
            <mxPoint x="460" y="650" as="sourcePoint" />
            <mxPoint x="660" y="730" as="targetPoint" />
            <Array as="points">
              <mxPoint x="660" y="660" />
            </Array>
          </mxGeometry>
        </mxCell>
        <mxCell id="hT5-2lFfMJk-3gB8myd--28" value="" style="endArrow=none;dashed=1;html=1;rounded=0;exitX=1;exitY=0.5;exitDx=0;exitDy=0;entryX=0.67;entryY=0.091;entryDx=0;entryDy=0;entryPerimeter=0;" edge="1" parent="1" source="hT5-2lFfMJk-3gB8myd--9" target="hT5-2lFfMJk-3gB8myd--21">
          <mxGeometry width="50" height="50" relative="1" as="geometry">
            <mxPoint x="386" y="661" as="sourcePoint" />
            <mxPoint x="720" y="730" as="targetPoint" />
            <Array as="points">
              <mxPoint x="720" y="595" />
            </Array>
          </mxGeometry>
        </mxCell>
        <mxCell id="hT5-2lFfMJk-3gB8myd--33" value="" style="endArrow=none;html=1;rounded=0;entryX=0;entryY=0.5;entryDx=0;entryDy=0;" edge="1" parent="1" target="hT5-2lFfMJk-3gB8myd--15">
          <mxGeometry width="50" height="50" relative="1" as="geometry">
            <mxPoint x="200" y="870" as="sourcePoint" />
            <mxPoint x="370" y="850" as="targetPoint" />
          </mxGeometry>
        </mxCell>
        <mxCell id="hT5-2lFfMJk-3gB8myd--34" value="" style="endArrow=none;html=1;rounded=0;entryX=0;entryY=0.5;entryDx=0;entryDy=0;" edge="1" parent="1" target="hT5-2lFfMJk-3gB8myd--16">
          <mxGeometry width="50" height="50" relative="1" as="geometry">
            <mxPoint x="200" y="870" as="sourcePoint" />
            <mxPoint x="370" y="850" as="targetPoint" />
          </mxGeometry>
        </mxCell>
        <mxCell id="hT5-2lFfMJk-3gB8myd--35" value="" style="endArrow=none;html=1;rounded=0;entryX=0;entryY=0.5;entryDx=0;entryDy=0;" edge="1" parent="1" target="hT5-2lFfMJk-3gB8myd--17">
          <mxGeometry width="50" height="50" relative="1" as="geometry">
            <mxPoint x="200" y="870" as="sourcePoint" />
            <mxPoint x="370" y="850" as="targetPoint" />
          </mxGeometry>
        </mxCell>
        <mxCell id="hT5-2lFfMJk-3gB8myd--36" value="&amp;lt;include&amp;gt;" style="text;html=1;strokeColor=none;fillColor=none;align=center;verticalAlign=middle;whiteSpace=wrap;rounded=0;" vertex="1" parent="1">
          <mxGeometry x="653" y="570" width="60" height="30" as="geometry" />
        </mxCell>
        <mxCell id="hT5-2lFfMJk-3gB8myd--37" value="&amp;lt;include&amp;gt;" style="text;html=1;strokeColor=none;fillColor=none;align=center;verticalAlign=middle;whiteSpace=wrap;rounded=0;" vertex="1" parent="1">
          <mxGeometry x="588" y="634" width="60" height="30" as="geometry" />
        </mxCell>
        <mxCell id="hT5-2lFfMJk-3gB8myd--39" value="&amp;lt;include&amp;gt;" style="text;html=1;strokeColor=none;fillColor=none;align=center;verticalAlign=middle;whiteSpace=wrap;rounded=0;" vertex="1" parent="1">
          <mxGeometry x="680" y="910" width="60" height="30" as="geometry" />
        </mxCell>
        <mxCell id="hT5-2lFfMJk-3gB8myd--41" value="&amp;lt;include&amp;gt;" style="text;html=1;strokeColor=none;fillColor=none;align=center;verticalAlign=middle;whiteSpace=wrap;rounded=0;" vertex="1" parent="1">
          <mxGeometry x="593" y="840" width="60" height="30" as="geometry" />
        </mxCell>
        <mxCell id="hT5-2lFfMJk-3gB8myd--42" value="&amp;lt;include&amp;gt;" style="text;html=1;strokeColor=none;fillColor=none;align=center;verticalAlign=middle;whiteSpace=wrap;rounded=0;" vertex="1" parent="1">
          <mxGeometry x="528" y="770" width="60" height="30" as="geometry" />
        </mxCell>
        <mxCell id="hT5-2lFfMJk-3gB8myd--46" value="" style="endArrow=none;dashed=1;html=1;rounded=0;entryX=0.901;entryY=0.857;entryDx=0;entryDy=0;entryPerimeter=0;exitX=1;exitY=0.5;exitDx=0;exitDy=0;" edge="1" parent="1" source="hT5-2lFfMJk-3gB8myd--17" target="hT5-2lFfMJk-3gB8myd--21">
          <mxGeometry width="50" height="50" relative="1" as="geometry">
            <mxPoint x="410" y="830" as="sourcePoint" />
            <mxPoint x="460" y="780" as="targetPoint" />
            <Array as="points">
              <mxPoint x="760" y="945" />
            </Array>
          </mxGeometry>
        </mxCell>
        <mxCell id="hT5-2lFfMJk-3gB8myd--47" value="" style="endArrow=none;dashed=1;html=1;rounded=0;exitX=1;exitY=0.5;exitDx=0;exitDy=0;entryX=0.5;entryY=1;entryDx=0;entryDy=0;" edge="1" parent="1" source="hT5-2lFfMJk-3gB8myd--16" target="hT5-2lFfMJk-3gB8myd--21">
          <mxGeometry width="50" height="50" relative="1" as="geometry">
            <mxPoint x="630" y="830" as="sourcePoint" />
            <mxPoint x="680" y="780" as="targetPoint" />
            <Array as="points">
              <mxPoint x="690" y="875" />
            </Array>
          </mxGeometry>
        </mxCell>
        <mxCell id="hT5-2lFfMJk-3gB8myd--48" value="" style="endArrow=none;dashed=1;html=1;rounded=0;exitX=1;exitY=0.5;exitDx=0;exitDy=0;" edge="1" parent="1" source="hT5-2lFfMJk-3gB8myd--15">
          <mxGeometry width="50" height="50" relative="1" as="geometry">
            <mxPoint x="630" y="760" as="sourcePoint" />
            <mxPoint x="656" y="790" as="targetPoint" />
            <Array as="points">
              <mxPoint x="656" y="805" />
            </Array>
          </mxGeometry>
        </mxCell>
        <mxCell id="hT5-2lFfMJk-3gB8myd--50" value="" style="endArrow=classic;html=1;rounded=0;exitX=0.5;exitY=0;exitDx=0;exitDy=0;exitPerimeter=0;" edge="1" parent="1">
          <mxGeometry width="50" height="50" relative="1" as="geometry">
            <mxPoint x="149.5" y="830" as="sourcePoint" />
            <mxPoint x="150" y="660" as="targetPoint" />
          </mxGeometry>
        </mxCell>
      </root>
    </mxGraphModel>
  </diagram>
</mxfile>
